<svg width="336" height="336" viewBox="0 0 336 336" fill="none" xmlns="http://www.w3.org/2000/svg">
<g opacity="0.08">
<path d="M308 240.8C308 253.4 304.5 265.3 298.2 275.38C286.58 294.84 265.3 308 240.8 308C216.3 308 194.88 294.84 183.4 275.38C177.24 265.3 173.6 253.4 173.6 240.8C173.6 203.7 203.7 173.6 240.8 173.6C277.9 173.6 308 203.7 308 240.8Z" stroke="#664228" stroke-width="2.5" stroke-miterlimit="10" stroke-linecap="round" stroke-linejoin="round"/>
<path d="M214.619 240.8L231.139 257.32L266.979 224.28" stroke="#664228" stroke-width="2.5" stroke-linecap="round" stroke-linejoin="round"/>
<path d="M308 121.66C308 149.24 300.86 173.6 289.66 194.74C277.34 181.72 259.98 173.6 240.8 173.6C203.7 173.6 173.6 203.7 173.6 240.8C173.6 258.02 180.18 273.7 190.82 285.6C185.64 287.98 180.88 289.94 176.68 291.34C171.92 293.02 164.08 293.02 159.32 291.34C118.72 277.48 28 219.66 28 121.66C28 78.4 62.86 43.3997 105.84 43.3997C131.18 43.3997 153.86 55.7202 168 74.6202C182.14 55.7202 204.82 43.3997 230.16 43.3997C273.14 43.3997 308 78.4 308 121.66Z" stroke="#664228" stroke-width="2.5" stroke-linecap="round" stroke-linejoin="round"/>
</g>
</svg>
